<?xml version="1.0" encoding="UTF-8" standalone="no"?>
<!-- Created with Inkscape (http://www.inkscape.org/) -->

<svg
   xmlns:dc="http://purl.org/dc/elements/1.1/"
   xmlns:cc="http://creativecommons.org/ns#"
   xmlns:rdf="http://www.w3.org/1999/02/22-rdf-syntax-ns#"
   xmlns:svg="http://www.w3.org/2000/svg"
   xmlns="http://www.w3.org/2000/svg"
   version="1.1"
   width="892.91339"
   height="247.32283"
   id="svg3189">
  <defs
     id="defs3191">
    <clipPath
       id="clipPath3045">
      <path
         d="m 480.063,30.5 100.938,0 0,34 -100.938,0 0,-34 z"
         id="path3047" />
    </clipPath>
  </defs>
  <metadata
     id="metadata3194">
    <rdf:RDF>
      <cc:Work
         rdf:about="">
        <dc:format>image/svg+xml</dc:format>
        <dc:type
           rdf:resource="http://purl.org/dc/dcmitype/StillImage" />
        <dc:title></dc:title>
      </cc:Work>
    </rdf:RDF>
  </metadata>
  <g
     transform="translate(-16.835521,-364.2601)"
     id="layer1">
    <g
       transform="matrix(7.3442733,0,0,7.3442733,-2369.4989,-1869.1027)"
       id="g3358">
      <path
         d="m 353.86822,304.57049 -28.46125,0 0,32.72625 28.46125,0 0,-32.72625 z"
         id="path3025"
         style="fill:#b3082d;fill-opacity:1;fill-rule:nonzero;stroke:none" />
      <g
         transform="matrix(1.25,0,0,-1.25,349.60185,306.90224)"
         id="g3027">
        <path
           d="m 0,0 -15.945,0 -1.665,0 0,-1.547 0,-6.267 1.665,0 0,6.267 15.945,0 0,-6.148 1.587,0 0,6.148 L 1.587,0 0,0 z"
           id="path3029"
           style="fill:#ffffff;fill-opacity:1;fill-rule:nonzero;stroke:none" />
      </g>
      <g
         transform="matrix(1.25,0,0,-1.25,332.94247,328.66949)"
         id="g3031">
        <path
           d="m 0,0 0,-1.586 2.778,0 1.626,0 0,1.586 0,12.297 0,1.627 -1.626,0 -1.904,0 -1.626,0 0,-1.627 0,-2.657 1.626,0 0,2.657 1.904,0 L 2.778,0 0,0 z"
           id="path3033"
           style="fill:#ffffff;fill-opacity:1;fill-rule:nonzero;stroke:none" />
      </g>
      <g
         transform="matrix(1.25,0,0,-1.25,342.88484,311.24087)"
         id="g3035">
        <path
           d="m 0,0 -1.626,0 0,-1.626 0,-12.297 0,-1.587 1.626,0 2.777,0 0,1.587 -2.777,0 0,12.297 1.904,0 0,-2.658 1.626,0 0,2.658 L 3.53,0 1.904,0 0,0 z"
           id="path3037"
           style="fill:#ffffff;fill-opacity:1;fill-rule:nonzero;stroke:none" />
      </g>
      <path
         d="m 332.94197,334.90424 13.41375,0 0,-1.95875 -13.41375,0 0,1.95875 z"
         id="path3039"
         style="fill:#ffffff;fill-opacity:1;fill-rule:nonzero;stroke:none" />
      <g
         transform="matrix(1.25,0,0,-1.25,-274.67178,385.19549)"
         id="g3041"
         style="fill:#000000;fill-opacity:1">
        <g
           clip-path="url(#clipPath3045)"
           id="g3043"
           style="fill:#000000;fill-opacity:1">
          <g
             transform="translate(511.3847,61.1259)"
             id="g3049"
             style="fill:#000000;fill-opacity:1">
            <path
               d="m 0,0 c 0,0.137 0.079,0.884 -0.196,0.903 l -3.203,0 c -1.218,0 -1.257,-0.295 -1.611,-1.375 -0.059,-0.197 -0.078,-0.452 -0.334,-0.452 -0.117,0 -0.196,0.137 -0.196,0.236 l 0.216,1.906 c 0.02,0.235 0,0.766 0.353,0.766 1.533,0 3.046,-0.078 5.58,-0.078 3.557,0 5.364,0.078 5.757,0.078 0.452,0 0.55,-0.118 0.569,-0.569 l 0.099,-1.573 c 0.02,-0.196 0.039,-0.432 -0.216,-0.432 -0.727,0 0.334,1.493 -1.67,1.493 l -2.81,0 c -0.884,0 -0.786,0.079 -0.786,-0.962 l 0,-10.02 c 0,-1.651 1.592,-1.003 1.592,-1.611 0,-0.06 0.019,-0.236 -0.177,-0.236 -0.472,0 -1.021,0.078 -1.591,0.078 -2.201,0 -2.574,-0.078 -2.692,-0.078 -0.177,0 -0.235,0.059 -0.235,0.255 0,0.472 1.551,0.275 1.551,1.454 L 0,0 z"
               id="path3051"
               style="fill:#000000;fill-opacity:1;fill-rule:nonzero;stroke:none" />
          </g>
          <g
             transform="translate(522.1514,57.3923)"
             id="g3053"
             style="fill:#000000;fill-opacity:1">
            <path
               d="m 0,0 c 0,-0.668 -0.039,-0.668 0.747,-0.668 l 2.122,0 c 2.043,0 1.512,1.572 1.984,1.572 0.157,0 0.216,-0.216 0.216,-0.373 0,-0.688 -0.039,-1.356 -0.039,-1.984 0,-0.512 0.039,-1.022 0.039,-1.553 0,-0.177 -0.078,-0.255 -0.216,-0.255 -0.609,0 0.059,1.729 -1.592,1.729 l -2.907,0 C -0.059,-1.532 0,-1.866 0,-2.161 l 0,-3.615 c 0,-1.159 -0.157,-1.63 1.493,-1.63 4.539,0 5.207,2.023 5.462,2.023 0.137,0 0.157,-0.197 0.157,-0.235 0,-0.708 -0.51,-1.396 -0.982,-1.907 -0.629,-0.707 -1.061,-0.667 -1.926,-0.667 -1.492,0 -2.986,0.118 -4.479,0.078 -0.786,-0.02 -1.611,-0.078 -2.397,-0.078 -0.177,0 -0.295,0.039 -0.295,0.196 0.04,0.236 0.236,0.196 0.865,0.511 0.51,0.236 0.55,0.785 0.55,1.709 l 0,8.959 c 0,0.884 0,1.827 -1.061,1.985 -0.158,0.038 -0.59,0.078 -0.59,0.314 0,0.157 0.119,0.236 0.688,0.236 3.714,0 4.735,-0.079 5.561,-0.079 0.392,0 2.2,0.079 2.809,0.079 0.157,0 0.196,-0.197 0.196,-0.433 C 6.051,3.104 5.776,2.947 5.658,2.947 5.187,2.947 5.501,3.89 5.187,4.342 4.676,5.01 2.633,4.892 1.847,4.892 -0.039,4.892 0,4.971 0,3.655 L 0,0 z"
               id="path3055"
               style="fill:#000000;fill-opacity:1;fill-rule:nonzero;stroke:none" />
          </g>
          <g
             transform="translate(544.1954,51.0073)"
             id="g3057"
             style="fill:#000000;fill-opacity:1">
            <path
               d="m 0,0 c 0.098,-1.65 1.552,-0.923 1.552,-1.611 0,-0.196 -0.256,-0.196 -0.471,-0.196 -0.374,0 -1.062,0.078 -1.847,0.078 -0.609,0 -1.238,-0.078 -1.729,-0.078 -0.177,0 -0.216,0.098 -0.216,0.176 0,0.59 1.238,0.158 1.218,1.611 L -1.69,7.603 c 0,0.491 -0.098,0.766 -0.216,0.766 -0.137,0 -0.314,-0.177 -0.511,-0.589 l -4.066,-8.291 c -0.098,-0.177 -0.413,-0.982 -0.609,-0.982 -0.197,0 -0.334,0.432 -0.394,0.57 l -4.184,8.762 c -0.059,0.157 -0.157,0.217 -0.236,0.217 -0.059,0 -0.118,-0.099 -0.138,-0.295 l -0.235,-6.896 c -0.099,-2.614 1.768,-1.749 1.768,-2.456 0,-0.196 -0.216,-0.216 -0.491,-0.216 -0.256,0 -1.14,0.078 -1.73,0.078 -1.021,0 -1.355,-0.078 -1.709,-0.078 -0.137,0 -0.196,0.098 -0.196,0.235 0,0.668 1.258,-0.137 1.395,1.906 0.236,3.203 0.472,5.285 0.472,7.368 0,4.617 -1.867,3.516 -1.867,4.185 0,0.176 0.157,0.216 0.334,0.216 0.354,0 0.707,-0.079 1.081,-0.079 0.354,0 0.707,0.079 1.06,0.079 0.275,0 0.315,-0.335 0.413,-0.55 l 4.676,-9.981 c 0.216,-0.413 0.294,-0.59 0.432,-0.59 0.098,0 0.295,0.413 0.609,1.061 l 4.676,9.391 c 0.118,0.217 0.275,0.688 0.511,0.669 0.196,0 0.826,-0.079 0.924,-0.079 0.451,0 0.628,0.079 0.943,0.079 0.117,0 0.196,-0.118 0.196,-0.236 0,-0.629 -1.571,0.216 -1.493,-2.122 L 0,0 z"
               id="path3059"
               style="fill:#000000;fill-opacity:1;fill-rule:nonzero;stroke:none" />
          </g>
          <g
             transform="translate(549.8733,51.9109)"
             id="g3061"
             style="fill:#000000;fill-opacity:1">
            <path
               d="m 0,0 c 0,-2.829 2.062,-1.807 2.062,-2.475 0,-0.138 -0.078,-0.236 -0.57,-0.236 -0.667,0 -0.962,0.078 -2.121,0.078 -0.923,0 -1.572,-0.078 -2.142,-0.078 -0.117,0 -0.314,0.059 -0.314,0.236 0,0.53 1.533,-0.079 1.533,2.102 l 0,9.411 c 0,2.358 -1.611,1.159 -1.611,1.866 0,0.157 0.098,0.295 0.255,0.295 0.177,0 0.865,-0.078 2.004,-0.078 0.982,0 1.297,0.078 2.24,0.078 2.495,0 5.265,-0.865 5.265,-3.792 0,-0.786 -0.589,-3.772 -4.774,-3.772 -0.197,0 -1.336,0.099 -1.336,0.452 0,0.137 0.098,0.176 0.196,0.176 0.158,0 0.57,-0.117 1.277,-0.117 2.005,0 3.184,0.962 3.184,2.731 0,2.377 -1.828,3.634 -4.087,3.634 C 0.432,10.511 0,10.511 0,9.922 L 0,0 z"
               id="path3063"
               style="fill:#000000;fill-opacity:1;fill-rule:nonzero;stroke:none" />
          </g>
          <g
             transform="translate(559.657,51.6163)"
             id="g3065"
             style="fill:#000000;fill-opacity:1">
            <path
               d="m 0,0 c 0,-1.159 -0.156,-1.63 1.494,-1.63 4.538,0 5.206,2.023 5.462,2.023 0.137,0 0.157,-0.197 0.157,-0.235 0,-0.708 -0.511,-1.396 -0.982,-1.907 -0.629,-0.707 -1.061,-0.667 -1.926,-0.667 -1.493,0 -2.986,0.118 -4.48,0.078 -0.786,-0.02 -1.611,-0.078 -2.396,-0.078 -0.177,0 -0.295,0.039 -0.295,0.196 0.039,0.236 0.235,0.196 0.865,0.511 0.51,0.236 0.549,0.785 0.549,1.709 l 0,9.961 c 0,1.021 -1.65,0.884 -1.65,1.277 0,0.216 0.137,0.256 0.393,0.256 0.413,0 1.021,-0.079 1.984,-0.079 1.12,0 1.592,0.079 1.886,0.079 0.256,0 0.374,-0.04 0.374,-0.275 C 1.435,10.767 0,11.258 0,9.548 L 0,0 z"
               id="path3067"
               style="fill:#000000;fill-opacity:1;fill-rule:nonzero;stroke:none" />
          </g>
          <g
             transform="translate(569.4417,57.3923)"
             id="g3069"
             style="fill:#000000;fill-opacity:1">
            <path
               d="m 0,0 c 0,-0.668 -0.04,-0.668 0.746,-0.668 l 2.122,0 c 2.043,0 1.513,1.572 1.985,1.572 0.157,0 0.216,-0.216 0.216,-0.373 0,-0.688 -0.039,-1.356 -0.039,-1.984 0,-0.512 0.039,-1.022 0.039,-1.553 0,-0.177 -0.078,-0.255 -0.216,-0.255 -0.609,0 0.058,1.729 -1.592,1.729 l -2.907,0 C -0.059,-1.532 0,-1.866 0,-2.161 l 0,-3.615 c 0,-1.159 -0.157,-1.63 1.493,-1.63 4.538,0 5.207,2.023 5.462,2.023 0.137,0 0.158,-0.197 0.158,-0.235 0,-0.708 -0.512,-1.396 -0.983,-1.907 -0.629,-0.707 -1.061,-0.667 -1.926,-0.667 -1.492,0 -2.986,0.118 -4.479,0.078 -0.786,-0.02 -1.611,-0.078 -2.397,-0.078 -0.177,0 -0.295,0.039 -0.295,0.196 0.039,0.236 0.236,0.196 0.865,0.511 0.51,0.236 0.549,0.785 0.549,1.709 l 0,8.959 c 0,0.884 0,1.827 -1.06,1.985 -0.157,0.038 -0.59,0.078 -0.59,0.314 0,0.157 0.118,0.236 0.688,0.236 3.714,0 4.735,-0.079 5.56,-0.079 0.393,0 2.201,0.079 2.809,0.079 0.158,0 0.197,-0.197 0.197,-0.433 C 6.051,3.104 5.776,2.947 5.658,2.947 5.187,2.947 5.501,3.89 5.187,4.342 4.676,5.01 2.632,4.892 1.846,4.892 -0.04,4.892 0,4.971 0,3.655 L 0,0 z"
               id="path3071"
               style="fill:#000000;fill-opacity:1;fill-rule:nonzero;stroke:none" />
          </g>
          <g
             transform="translate(513.8489,42.9572)"
             id="g3073"
             style="fill:#000000;fill-opacity:1">
            <path
               d="m 0,0 c 0,0.818 -0.958,0.584 -0.946,0.83 0,0.081 0.058,0.128 0.152,0.128 0.199,0 0.526,-0.047 0.888,-0.047 0.362,0 0.689,0.047 0.829,0.047 C 0.994,0.958 1.04,0.923 1.04,0.841 1.04,0.654 0.467,0.818 0.444,0.14 L 0.351,-2.219 c -0.047,-1.215 -0.666,-2.173 -2.36,-2.173 -1.297,0 -2.325,0.514 -2.325,1.799 l 0,2.535 c 0,0.467 -0.105,0.607 -0.408,0.712 -0.269,0.094 -0.491,0.105 -0.491,0.199 0,0.058 0.035,0.105 0.164,0.105 0.315,0 0.676,-0.047 1.039,-0.047 0.374,0 0.782,0.047 1.133,0.047 0.07,0 0.117,-0.035 0.117,-0.094 0,-0.151 -0.234,-0.116 -0.432,-0.221 C -3.411,0.549 -3.481,0.362 -3.481,0.047 l 0,-2.477 c 0,-0.969 0.514,-1.588 1.507,-1.588 1.589,0 1.974,0.84 1.974,2.359 L 0,0 z"
               id="path3075"
               style="fill:#000000;fill-opacity:1;fill-rule:nonzero;stroke:none" />
          </g>
          <g
             transform="translate(520.6946,42.794)"
             id="g3077"
             style="fill:#000000;fill-opacity:1">
            <path
               d="m 0,0 c 0,1.016 -1.051,0.724 -1.051,1.016 0,0.07 0.093,0.105 0.175,0.105 0.269,0 0.654,-0.047 0.981,-0.047 0.433,0 0.736,0.047 0.97,0.047 0.093,0 0.129,-0.058 0.129,-0.117 0,-0.233 -0.771,0 -0.771,-0.911 l 0,-4.124 c 0,-0.14 -0.047,-0.198 -0.199,-0.198 -0.094,0 -0.175,0.047 -0.374,0.257 l -3.598,3.89 -0.07,-0.012 0,-3.165 c 0,-0.842 0.993,-0.491 0.993,-0.842 0,-0.07 -0.082,-0.081 -0.211,-0.081 -0.327,0 -0.689,0.046 -0.992,0.046 -0.316,0 -0.631,-0.046 -0.912,-0.046 -0.093,0 -0.163,0.035 -0.163,0.105 0,0.327 0.806,0 0.806,1.226 l 0,2.944 c 0,0.934 -1.016,0.666 -1.016,0.947 0,0.046 0.058,0.081 0.187,0.081 0.14,0 0.303,-0.047 0.596,-0.047 0.244,0 0.408,0.047 0.618,0.047 0.164,0 0.281,-0.058 0.386,-0.175 L -0.082,-2.804 0,-2.757 0,0 z"
               id="path3079"
               style="fill:#000000;fill-opacity:1;fill-rule:nonzero;stroke:none" />
          </g>
          <g
             transform="translate(523.2057,43.1563)"
             id="g3081"
             style="fill:#000000;fill-opacity:1">
            <path
               d="m 0,0 c 0,0.619 -0.9,0.444 -0.9,0.654 0,0.058 0.036,0.105 0.164,0.105 0.316,0 0.677,-0.047 1.04,-0.047 0.374,0 0.782,0.047 1.133,0.047 0.07,0 0.117,-0.035 0.117,-0.094 0,-0.303 -0.702,-0.034 -0.702,-0.595 l 0,-3.855 c 0,-0.619 0.912,-0.444 0.912,-0.654 0,-0.059 -0.035,-0.106 -0.163,-0.106 -0.316,0 -0.678,0.047 -1.04,0.047 -0.374,0 -0.783,-0.047 -1.134,-0.047 -0.069,0 -0.116,0.036 -0.116,0.094 0,0.304 0.689,0.035 0.689,0.596 L 0,0 z"
               id="path3083"
               style="fill:#000000;fill-opacity:1;fill-rule:nonzero;stroke:none" />
          </g>
          <g
             transform="translate(525.7646,43.1798)"
             id="g3085"
             style="fill:#000000;fill-opacity:1">
            <path
               d="m 0,0 c -0.281,0.642 -0.666,0.431 -0.666,0.631 0,0.081 0.058,0.105 0.129,0.105 0.117,0 0.595,-0.047 0.899,-0.047 0.268,0 0.654,0.047 0.888,0.047 0.07,0 0.129,-0.036 0.129,-0.105 0,-0.211 -0.503,-0.094 -0.503,-0.48 0,-0.151 0.281,-0.736 0.841,-2.149 0.514,-1.285 0.538,-1.39 0.69,-1.39 0.105,0 0.198,0.129 0.969,1.81 0.456,0.993 0.654,1.484 0.654,1.683 0,0.432 -0.654,0.292 -0.654,0.526 0,0.081 0.082,0.105 0.175,0.105 0.21,0 0.467,-0.047 0.736,-0.047 0.385,0 0.666,0.047 0.829,0.047 0.083,0 0.129,-0.036 0.129,-0.094 0,-0.117 -0.373,-0.047 -0.724,-0.748 L 2.734,-3.68 c -0.41,-0.829 -0.491,-0.934 -0.608,-0.934 -0.129,0 -0.164,0.069 -0.303,0.396 L 0,0 z"
               id="path3087"
               style="fill:#000000;fill-opacity:1;fill-rule:nonzero;stroke:none" />
          </g>
          <g
             transform="translate(532.8902,39.476)"
             id="g3089"
             style="fill:#000000;fill-opacity:1">
            <path
               d="m 0,0 c 0,-0.351 0.268,-0.467 0.911,-0.467 1.588,0 1.846,0.865 1.998,0.865 0.058,0 0.081,-0.059 0.081,-0.129 0,-0.14 -0.14,-0.631 -0.479,-0.911 -0.21,-0.176 -0.385,-0.222 -0.899,-0.222 -0.432,0 -0.876,0.046 -1.437,0.046 -0.549,0 -1.157,-0.046 -1.554,-0.046 -0.116,0 -0.222,0.035 -0.222,0.105 0,0.256 0.748,0 0.748,0.736 l 0,3.609 c 0,0.678 -0.783,0.491 -0.783,0.736 0,0.082 0.071,0.117 0.188,0.117 0.478,0 1.226,-0.047 1.95,-0.047 0.818,0 1.846,0.047 1.986,0.047 0.07,0 0.117,-0.07 0.117,-0.117 0,-0.14 -0.011,-0.326 -0.011,-1.016 0,-0.14 -0.047,-0.187 -0.129,-0.187 -0.093,0 -0.129,0.199 -0.152,0.339 C 2.243,3.878 1.811,4.042 0.923,4.042 0.315,4.042 0,4.042 0,3.704 l 0,-1.578 1.074,0 c 0.842,0 0.632,0.678 0.888,0.678 0.082,0 0.129,-0.058 0.129,-0.129 0,-0.14 -0.035,-0.373 -0.035,-0.619 0,-0.362 0.023,-0.689 0.023,-0.993 0,-0.128 -0.046,-0.175 -0.151,-0.175 -0.222,0 -0.024,0.806 -0.83,0.806 L 0,1.694 0,0 z"
               id="path3091"
               style="fill:#000000;fill-opacity:1;fill-rule:nonzero;stroke:none" />
          </g>
          <g
             transform="translate(537.8317,41.4153)"
             id="g3093"
             style="fill:#000000;fill-opacity:1">
            <path
               d="m 0,0 0.818,0 c 0.864,0 1.25,0.315 1.25,0.981 0,1.086 -1.121,1.191 -1.554,1.191 C 0.176,2.172 0,2.056 0,1.682 L 0,0 z m 0,-2.044 c 0,-0.619 0.899,-0.444 0.899,-0.655 0,-0.058 -0.034,-0.105 -0.163,-0.105 -0.315,0 -0.677,0.047 -1.04,0.047 -0.374,0 -0.782,-0.047 -1.133,-0.047 -0.07,0 -0.117,0.036 -0.117,0.094 0,0.304 0.701,0.023 0.701,0.759 l 0,3.469 c 0,0.912 -0.841,0.573 -0.841,0.83 0,0.117 0.094,0.152 0.222,0.152 0.245,0 0.572,-0.047 0.994,-0.047 C 0.152,2.453 0.584,2.5 0.97,2.5 2.488,2.5 2.92,1.741 2.92,1.087 2.92,0.222 2.255,0 1.776,-0.152 l 1.402,-1.881 c 0.245,-0.327 0.408,-0.386 0.666,-0.386 0.198,0 0.257,-0.023 0.257,-0.116 0,-0.128 -0.152,-0.222 -0.386,-0.222 l -0.666,0 c -0.163,0 -0.397,0.035 -0.596,0.315 l -1.074,1.531 c -0.363,0.538 -0.444,0.584 -0.725,0.584 l -0.654,0 0,-1.717 z"
               id="path3095"
               style="fill:#000000;fill-opacity:1;fill-rule:nonzero;stroke:none" />
          </g>
          <g
             transform="translate(544.8529,43.8103)"
             id="g3097"
             style="fill:#000000;fill-opacity:1">
            <path
               d="m 0,0 c 0.234,-0.082 0.409,-0.152 0.514,-0.152 0.269,0 0.175,0.163 0.28,0.163 0.047,0 0.07,-0.046 0.07,-0.129 0,-0.163 -0.023,-0.454 -0.023,-0.7 0,-0.198 0.023,-0.619 0.023,-0.794 0,-0.105 -0.07,-0.129 -0.117,-0.129 -0.069,0 -0.116,0.14 -0.163,0.281 -0.14,0.408 -0.444,1.284 -1.46,1.284 -0.608,0 -1.052,-0.315 -1.052,-0.829 0,-1.214 2.874,-0.853 2.874,-2.605 0,-0.899 -0.736,-1.635 -1.939,-1.635 -0.572,0 -0.958,0.082 -1.39,0.303 -0.164,0.082 -0.175,0.128 -0.199,0.339 -0.035,0.362 -0.222,0.958 -0.222,1.192 0,0.093 0.058,0.163 0.141,0.163 0.105,0 0.151,-0.07 0.222,-0.316 0.139,-0.478 0.712,-1.355 1.6,-1.355 0.631,0 1.133,0.328 1.133,0.959 0,1.308 -2.874,0.922 -2.874,2.605 0,0.747 0.607,1.507 1.706,1.507 C -0.537,0.152 -0.245,0.082 0,0"
               id="path3099"
               style="fill:#000000;fill-opacity:1;fill-rule:nonzero;stroke:none" />
          </g>
          <g
             transform="translate(547.3524,43.1563)"
             id="g3101"
             style="fill:#000000;fill-opacity:1">
            <path
               d="m 0,0 c 0,0.619 -0.9,0.444 -0.9,0.654 0,0.058 0.036,0.105 0.164,0.105 0.316,0 0.677,-0.047 1.039,-0.047 0.375,0 0.783,0.047 1.134,0.047 0.07,0 0.117,-0.035 0.117,-0.094 0,-0.303 -0.702,-0.034 -0.702,-0.595 l 0,-3.855 c 0,-0.619 0.912,-0.444 0.912,-0.654 0,-0.059 -0.035,-0.106 -0.163,-0.106 -0.316,0 -0.678,0.047 -1.04,0.047 -0.374,0 -0.783,-0.047 -1.134,-0.047 -0.069,0 -0.116,0.036 -0.116,0.094 0,0.304 0.689,0.035 0.689,0.596 L 0,0 z"
               id="path3103"
               style="fill:#000000;fill-opacity:1;fill-rule:nonzero;stroke:none" />
          </g>
          <g
             transform="translate(551.7792,43.0042)"
             id="g3105"
             style="fill:#000000;fill-opacity:1">
            <path
               d="m 0,0 c 0,0.257 -0.105,0.432 -0.35,0.432 l -0.946,0 c -0.83,0 -0.62,-1.04 -0.923,-1.04 -0.105,0 -0.14,0.059 -0.14,0.141 0,0.093 0.199,1.004 0.199,1.261 0,0.07 0.069,0.094 0.151,0.094 0.21,0 0.818,-0.071 1.519,-0.071 l 1.553,0 c 0.304,0 0.655,0.013 0.994,0.024 0.327,0.012 0.63,0.047 0.805,0.047 0.106,0 0.153,-0.035 0.153,-0.141 0,-0.105 0.128,-0.957 0.128,-1.039 0,-0.082 -0.035,-0.128 -0.152,-0.128 -0.21,0 -0.163,0.852 -0.923,0.852 l -0.864,0 c -0.281,0 -0.35,-0.093 -0.35,-0.327 l 0,-3.586 c 0,-0.783 0.98,-0.479 0.98,-0.795 0,-0.081 -0.058,-0.117 -0.233,-0.117 -0.339,0 -0.666,0.047 -1.122,0.047 -0.548,0 -0.852,-0.047 -1.238,-0.047 -0.093,0 -0.14,0.047 -0.14,0.117 0,0.281 0.899,0 0.899,0.748 L 0,0 z"
               id="path3107"
               style="fill:#000000;fill-opacity:1;fill-rule:nonzero;stroke:none" />
          </g>
          <g
             transform="translate(557.1883,40.901)"
             id="g3109"
             style="fill:#000000;fill-opacity:1">
            <path
               d="m 0,0 -1.226,2.197 c -0.385,0.689 -0.865,0.502 -0.865,0.689 0,0.058 0.046,0.129 0.129,0.129 0.315,0 0.689,-0.048 1.039,-0.048 0.281,0 0.55,0.048 0.771,0.048 0.129,0 0.164,-0.048 0.164,-0.106 0,-0.163 -0.421,-0.105 -0.421,-0.432 0,-0.28 1.005,-1.916 1.052,-1.916 0.093,0 1.027,1.425 1.027,1.787 0,0.514 -0.711,0.375 -0.711,0.549 0,0.082 0.058,0.118 0.116,0.118 0.187,0 0.631,-0.048 0.946,-0.048 0.199,0 0.514,0.048 0.748,0.048 0.081,0 0.105,-0.036 0.105,-0.094 0,-0.152 -0.327,-0.07 -0.643,-0.596 l -1.378,-2.231 0,-1.67 c 0,-0.573 0.678,-0.363 0.678,-0.608 0,-0.093 -0.059,-0.105 -0.153,-0.105 -0.198,0 -0.584,0.046 -0.911,0.046 -0.374,0 -0.759,-0.046 -1.062,-0.046 -0.071,0 -0.141,0.012 -0.141,0.093 0,0.246 0.736,0.105 0.736,0.818 L 0,0 z"
               id="path3111"
               style="fill:#000000;fill-opacity:1;fill-rule:nonzero;stroke:none" />
          </g>
          <g
             transform="translate(561.7415,42.766)"
             id="g3113"
             style="fill:#000000;fill-opacity:1">
            <path
               d="m 0,0 c 0.221,0 0.433,0.026 0.433,0.308 0,0.215 -0.124,0.295 -0.321,0.295 -0.138,0 -0.166,0 -0.166,-0.145 L -0.054,0 0,0 z m -0.054,-0.466 c 0,-0.2 0.011,-0.178 0.166,-0.188 l 0,-0.062 -0.555,0 0,0.062 c 0.115,0 0.162,0 0.162,0.104 l 0,1.073 C -0.292,0.62 -0.364,0.608 -0.443,0.608 l 0,0.074 0.558,0 c 0.238,0 0.546,-0.033 0.546,-0.347 0,-0.205 -0.185,-0.357 -0.376,-0.371 l 0,-0.005 c 0.303,-0.054 0.271,-0.613 0.538,-0.613 l 0,-0.062 -0.093,0 c -0.238,0 -0.254,0 -0.38,0.304 -0.086,0.209 -0.1,0.333 -0.344,0.333 l -0.06,0 0,-0.387 z m 1.293,0.398 c 0,0.598 -0.466,1.075 -1.071,1.075 -0.605,0 -1.07,-0.477 -1.07,-1.075 0,-0.579 0.469,-1.068 1.07,-1.068 0.591,0 1.071,0.467 1.071,1.068 m -2.266,-0.004 c 0,0.658 0.518,1.205 1.195,1.205 0.659,0 1.196,-0.525 1.196,-1.188 0,-0.675 -0.529,-1.207 -1.196,-1.207 -0.664,0 -1.195,0.546 -1.195,1.19"
               id="path3115"
               style="fill:#000000;fill-opacity:1;fill-rule:nonzero;stroke:none" />
          </g>
        </g>
      </g>
    </g>
  </g>
</svg>
